# xmcd CD database file
#
# Track frame offsets:
#	150
#	29108
#	48682
#	67364
#	88783
#	101713
#	126767
#	142730
#	157847
#	178872
#	191126
#	219440
#	237772
#	253649
#
# Disc length: 3724 seconds
#
# Revision: 6
# Processed by: cddbd v1.5.2PL0 Copyright (c) Steve Scherf et al.
# Submitted via: CDex 2.17
#
DISCID=d10e8a0e
DTITLE=Alan Jackson - The Bluegrass Album
DYEAR=2013
DGENRE=Country
TTITLE0=Long Hard Road
TTITLE1=Mary
TTITLE2=Wild And Blue
TTITLE3=Appalachian Mountain Girl
TTITLE4=Ain't Got Trouble Now
TTITLE5=Blue Ridge Mountain Song
TTITLE6=Tie Me Down
TTITLE7=There Is A Time
TTITLE8=Blue Side Of Heaven
TTITLE9=Let's Get Back To Me And You
TTITLE10=Way Beyond Blue
TTITLE11=Knew All Along
TTITLE12=Blacktop
TTITLE13=Blue Moon Of Kentucky
EXTD=YEAR: 2013
EXTT0=
EXTT1=
EXTT2=
EXTT3=
EXTT4=
EXTT5=
EXTT6=
EXTT7=
EXTT8=
EXTT9=
EXTT10=
EXTT11=
EXTT12=
EXTT13=
PLAYORDER=
